ISO-10303-21;
HEADER;
FILE_DESCRIPTION(('ViewDefinition [CoordinationView_V2.0]'),'2;1');
FILE_NAME('0001','2025-01-04T21:52:19+01:00',(''),(''),'ODA SDAI 22.12','23.0.11.19 - Exporter 23.0.11.19 - Alternate UI 23.0.11.19','');
FILE_SCHEMA(('IFC2X3'));
ENDSEC;

DATA;
#1=IFCORGANIZATION($,'Autodesk Revit 2023 (ENU)',$,$,$);
#2=IFCAPPLICATION(#1,'2023','Autodesk Revit 2023 (ENU)','Revit');
#3=IFCCARTESIANPOINT((0.,0.,0.));
#4=IFCCARTESIANPOINT((0.,0.));
#5=IFCDIRECTION((1.,0.,0.));
#6=IFCDIRECTION((-1.,0.,0.));
#7=IFCDIRECTION((0.,1.,0.));
#8=IFCDIRECTION((0.,-1.,0.));
#9=IFCDIRECTION((0.,0.,1.));
#10=IFCDIRECTION((0.,0.,-1.));
#11=IFCDIRECTION((1.,0.));
#12=IFCDIRECTION((-1.,0.));
#13=IFCDIRECTION((0.,1.));
#14=IFCDIRECTION((0.,-1.));
#15=IFCAXIS2PLACEMENT3D(#3,$,$);
#16=IFCLOCALPLACEMENT(#109,#15);
#17=IFCPERSON($,'','estag',$,$,$,$,$);
#18=IFCORGANIZATION($,'','',$,$);
#19=IFCPERSONANDORGANIZATION(#17,#18,$);
#20=IFCOWNERHISTORY(#19,#2,$,.NOCHANGE.,$,$,$,1736023934);
#21=IFCSIUNIT(*,.LENGTHUNIT.,.MILLI.,.METRE.);
#22=IFCSIUNIT(*,.LENGTHUNIT.,$,.METRE.);
#23=IFCSIUNIT(*,.AREAUNIT.,$,.SQUARE_METRE.);
#24=IFCSIUNIT(*,.VOLUMEUNIT.,$,.CUBIC_METRE.);
#25=IFCSIUNIT(*,.PLANEANGLEUNIT.,$,.RADIAN.);
#26=IFCDIMENSIONALEXPONENTS(0,0,0,0,0,0,0);
#27=IFCMEASUREWITHUNIT(IFCRATIOMEASURE(0.017453292519943278),#25);
#28=IFCCONVERSIONBASEDUNIT(#26,.PLANEANGLEUNIT.,'DEGREE',#27);
#29=IFCSIUNIT(*,.MASSUNIT.,.KILO.,.GRAM.);
#30=IFCDERIVEDUNITELEMENT(#29,1);
#31=IFCDERIVEDUNITELEMENT(#22,-3);
#32=IFCDERIVEDUNIT((#30,#31),.MASSDENSITYUNIT.,$);
#33=IFCDERIVEDUNITELEMENT(#22,4);
#34=IFCDERIVEDUNIT((#33),.MOMENTOFINERTIAUNIT.,$);
#35=IFCSIUNIT(*,.TIMEUNIT.,$,.SECOND.);
#36=IFCSIUNIT(*,.FREQUENCYUNIT.,$,.HERTZ.);
#37=IFCSIUNIT(*,.THERMODYNAMICTEMPERATUREUNIT.,$,.KELVIN.);
#38=IFCSIUNIT(*,.THERMODYNAMICTEMPERATUREUNIT.,$,.DEGREE_CELSIUS.);
#39=IFCDERIVEDUNITELEMENT(#29,1);
#40=IFCDERIVEDUNITELEMENT(#37,-1);
#41=IFCDERIVEDUNITELEMENT(#35,-3);
#42=IFCDERIVEDUNIT((#39,#40,#41),.THERMALTRANSMITTANCEUNIT.,$);
#43=IFCSIUNIT(*,.LENGTHUNIT.,.DECI.,.METRE.);
#44=IFCDERIVEDUNITELEMENT(#22,3);
#45=IFCDERIVEDUNITELEMENT(#35,-1);
#46=IFCDERIVEDUNIT((#44,#45),.VOLUMETRICFLOWRATEUNIT.,$);
#47=IFCDERIVEDUNITELEMENT(#29,1);
#48=IFCDERIVEDUNITELEMENT(#35,-1);
#49=IFCDERIVEDUNIT((#47,#48),.MASSFLOWRATEUNIT.,$);
#50=IFCDERIVEDUNITELEMENT(#35,-1);
#51=IFCDERIVEDUNIT((#50),.ROTATIONALFREQUENCYUNIT.,$);
#52=IFCSIUNIT(*,.ELECTRICCURRENTUNIT.,$,.AMPERE.);
#53=IFCSIUNIT(*,.ELECTRICVOLTAGEUNIT.,$,.VOLT.);
#54=IFCSIUNIT(*,.POWERUNIT.,$,.WATT.);
#55=IFCSIUNIT(*,.FORCEUNIT.,.KILO.,.NEWTON.);
#56=IFCSIUNIT(*,.ILLUMINANCEUNIT.,$,.LUX.);
#57=IFCSIUNIT(*,.LUMINOUSFLUXUNIT.,$,.LUMEN.);
#58=IFCSIUNIT(*,.LUMINOUSINTENSITYUNIT.,$,.CANDELA.);
#59=IFCDERIVEDUNITELEMENT(#29,-1);
#60=IFCDERIVEDUNITELEMENT(#22,-2);
#61=IFCDERIVEDUNITELEMENT(#35,3);
#62=IFCDERIVEDUNITELEMENT(#57,1);
#63=IFCDERIVEDUNIT((#59,#60,#61,#62),.USERDEFINED.,'Luminous Efficacy');
#64=IFCDERIVEDUNITELEMENT(#29,1);
#65=IFCDERIVEDUNITELEMENT(#22,2);
#66=IFCDERIVEDUNITELEMENT(#35,-3);
#67=IFCDERIVEDUNIT((#64,#65,#66),.SOUNDPOWERUNIT.,$);
#68=IFCDERIVEDUNITELEMENT(#29,1);
#69=IFCDERIVEDUNITELEMENT(#22,-1);
#70=IFCDERIVEDUNITELEMENT(#35,-2);
#71=IFCDERIVEDUNIT((#68,#69,#70),.SOUNDPRESSUREUNIT.,$);
#72=IFCDERIVEDUNITELEMENT(#22,1);
#73=IFCDERIVEDUNITELEMENT(#35,-1);
#74=IFCDERIVEDUNIT((#72,#73),.LINEARVELOCITYUNIT.,$);
#75=IFCSIUNIT(*,.PRESSUREUNIT.,$,.PASCAL.);
#76=IFCDERIVEDUNITELEMENT(#22,-2);
#77=IFCDERIVEDUNITELEMENT(#29,1);
#78=IFCDERIVEDUNITELEMENT(#35,-2);
#79=IFCDERIVEDUNIT((#76,#77,#78),.USERDEFINED.,'Friction Loss');
#80=IFCDERIVEDUNITELEMENT(#29,1);
#81=IFCDERIVEDUNITELEMENT(#22,1);
#82=IFCDERIVEDUNITELEMENT(#35,-2);
#83=IFCDERIVEDUNITELEMENT(#22,-1);
#84=IFCDERIVEDUNIT((#80,#81,#82,#83),.LINEARFORCEUNIT.,$);
#85=IFCDERIVEDUNITELEMENT(#29,1);
#86=IFCDERIVEDUNITELEMENT(#22,1);
#87=IFCDERIVEDUNITELEMENT(#35,-2);
#88=IFCDERIVEDUNITELEMENT(#22,-2);
#89=IFCDERIVEDUNIT((#85,#86,#87,#88),.PLANARFORCEUNIT.,$);
#90=IFCUNITASSIGNMENT((#21,#23,#24,#28,#29,#32,#34,#35,#36,#38,#42,#46,#49,#51,#52,#53,#54,#55,#56,#57,#58,#63,#67,#71,#74,#75,#79,#84,#89));
#91=IFCAXIS2PLACEMENT3D(#3,$,$);
#92=IFCDIRECTION((6.1230317691118863E-17,1.));
#93=IFCGEOMETRICREPRESENTATIONCONTEXT($,'Model',3,0.01,#91,#92);
#94=IFCGEOMETRICREPRESENTATIONSUBCONTEXT('Axis','Model',*,*,*,*,#93,$,.GRAPH_VIEW.,$);
#95=IFCGEOMETRICREPRESENTATIONSUBCONTEXT('Body','Model',*,*,*,*,#93,$,.MODEL_VIEW.,$);
#96=IFCGEOMETRICREPRESENTATIONSUBCONTEXT('Box','Model',*,*,*,*,#93,$,.MODEL_VIEW.,$);
#97=IFCGEOMETRICREPRESENTATIONSUBCONTEXT('FootPrint','Model',*,*,*,*,#93,$,.MODEL_VIEW.,$);
#98=IFCPROJECT('1qjwE5Fw56fwEPPelSwodO',#20,'0001',$,$,'Project Name','Project Status',(#93),#90);
#99=IFCPOSTALADDRESS($,$,$,$,('Enter address here'),$,'','Boston','','MA');
#100=IFCBUILDING('1qjwE5Fw56fwEPPelSwodP',#20,'Jacal',$,$,#16,$,'Jacal',.ELEMENT.,$,$,#99);
#101=IFCAXIS2PLACEMENT3D(#3,$,$);
#102=IFCLOCALPLACEMENT(#16,#101);
#103=IFCBUILDINGSTOREY('3Zu5Bv0LOHrPC10026FoQQ',#20,'Level 1',$,'Level:8mm Head',#102,$,'Level 1',.ELEMENT.,0.);
#104=IFCCARTESIANPOINT((0.,0.,4000.));
#105=IFCAXIS2PLACEMENT3D(#104,$,$);
#106=IFCLOCALPLACEMENT(#16,#105);
#107=IFCBUILDINGSTOREY('15Z0v90RiHrPC20026FoKR',#20,'Level 2',$,'Level:8mm Head',#106,$,'Level 2',.ELEMENT.,4000.0000000000005);
#108=IFCAXIS2PLACEMENT3D(#3,$,$);
#109=IFCLOCALPLACEMENT($,#108);
#110=IFCSITE('1qjwE5Fw56fwEPPelSwodQ',#20,'Default',$,$,#109,$,$,.ELEMENT.,(42,21,31,181945),(-71,-3,-24,-263305),0.,$,$);
#111=IFCPROPERTYSINGLEVALUE('Category',$,IFCLABEL('Project Information'),$);
#112=IFCPROPERTYSET('3WM6eOAYD3eWHHu1P4NqJ1',#20,'Pset_ProductRequirements',$,(#111));
#113=IFCRELDEFINESBYPROPERTIES('3DnlVNpIbAMfKU2OxnSx4W',#20,$,$,(#110),#112);
#114=IFCCARTESIANPOINT((-19226.403875151049,19553.545200276363,0.));
#115=IFCAXIS2PLACEMENT3D(#114,$,$);
#116=IFCLOCALPLACEMENT(#102,#115);
#117=IFCCARTESIANPOINT((36000.,0.));
#118=IFCPOLYLINE((#4,#117));
#119=IFCSHAPEREPRESENTATION(#94,'Axis','Curve2D',(#118));
#120=IFCCARTESIANPOINT((18000.,-1.0871303857129533E-12));
#121=IFCAXIS2PLACEMENT2D(#120,#12);
#122=IFCRECTANGLEPROFILEDEF(.AREA.,$,#121,36000.,200.);
#123=IFCAXIS2PLACEMENT3D(#3,$,$);
#124=IFCEXTRUDEDAREASOLID(#122,#123,#9,8000.0000000000009);
#125=IFCCOLOURRGB($,0.50196078431372548,0.50196078431372548,0.50196078431372548);
#126=IFCSURFACESTYLERENDERING(#125,0.,$,$,$,$,IFCNORMALISEDRATIOMEASURE(0.5),IFCSPECULAREXPONENT(64.),.NOTDEFINED.);
#127=IFCSURFACESTYLE('Default Wall',.BOTH.,(#126));
#128=IFCPRESENTATIONSTYLEASSIGNMENT((#127));
#129=IFCSTYLEDITEM(#124,(#128),$);
#130=IFCSHAPEREPRESENTATION(#95,'Body','SweptSolid',(#124));
#131=IFCPRODUCTDEFINITIONSHAPE($,$,(#119,#130));
#132=IFCWALLSTANDARDCASE('3Bddd$RtX4BfXCbPfFfcjF',#20,'Basic Wall:Generic - 200mm:350318',$,'Basic Wall:Generic - 200mm',#116,#131,'350318');
#133=IFCMATERIAL('Default Wall');
#134=IFCPRESENTATIONSTYLEASSIGNMENT((#127));
#135=IFCSTYLEDITEM($,(#134),$);
#136=IFCSTYLEDREPRESENTATION(#93,'Style','Material',(#135));
#137=IFCMATERIALDEFINITIONREPRESENTATION($,$,(#136),#133);
#138=IFCMATERIALLAYER(#133,200.,$);
#139=IFCMATERIALLAYERSET((#138),'Basic Wall:Generic - 200mm');
#140=IFCMATERIALLAYERSETUSAGE(#139,.AXIS2.,.NEGATIVE.,100.);
#141=IFCWALLTYPE('3Zu5Bv0LOHrPC10026FoOZ',#20,'Basic Wall:Generic - 200mm',$,$,(#143,#145,#147),$,'398',$,.STANDARD.);
#142=IFCPROPERTYSINGLEVALUE('Roughness',$,IFCPOSITIVELENGTHMEASURE(914.40000000000009),$);
#143=IFCPROPERTYSET('0xgTkGgMABfaCgTqczCkGr',#20,'Pset_ElementShading',$,(#142));
#144=IFCPROPERTYSINGLEVALUE('Category',$,IFCLABEL('Walls'),$);
#145=IFCPROPERTYSET('3vHsu7l96ACysRpKlMF$HY',#20,'Pset_ProductRequirements',$,(#144));
#146=IFCPROPERTYSINGLEVALUE('IsExternal',$,IFCBOOLEAN(.T.),$);
#147=IFCPROPERTYSET('1OzIf7o2mD9FIsM3R61Xq6',#20,'Pset_WallCommon',$,(#146));
#148=IFCPROPERTYSINGLEVALUE('Category',$,IFCLABEL('Walls'),$);
#149=IFCPROPERTYSET('1ZXJLsTP4J0O1tzyZNCuxA',#20,'Pset_ProductRequirements',$,(#148));
#150=IFCPROPERTYSINGLEVALUE('Reference',$,IFCIDENTIFIER('Generic - 200mm'),$);
#151=IFCPROPERTYSET('3K6F0LE9CQjrd3CugHV_Ja',#20,'Pset_QuantityTakeOff',$,(#150));
#152=IFCPROPERTYSINGLEVALUE('Reference',$,IFCLABEL('Generic - 200mm'),$);
#153=IFCPROPERTYSET('0FmA_BGSJCvP_xoe3GjSJn',#20,'Pset_ReinforcementBarPitchOfWall',$,(#152));
#154=IFCPROPERTYSINGLEVALUE('ExtendToStructure',$,IFCBOOLEAN(.F.),$);
#155=IFCPROPERTYSINGLEVALUE('LoadBearing',$,IFCBOOLEAN(.F.),$);
#156=IFCPROPERTYSET('23_geK_rjWyzc45bJvuMNP',#20,'Pset_WallCommon',$,(#146,#150,#154,#155));
#157=IFCRELDEFINESBYPROPERTIES('2Eqntj8eT7Rxg93K_pi1Bd',#20,$,$,(#132),#149);
#158=IFCRELDEFINESBYPROPERTIES('39ghgN89XDaBYq03ClwGpg',#20,$,$,(#132),#151);
#159=IFCRELDEFINESBYPROPERTIES('2_Gtb600vFVBFIGGxiWQK2',#20,$,$,(#132),#153);
#160=IFCRELDEFINESBYPROPERTIES('0eXomMtzbDAfA$E8WBu8wk',#20,$,$,(#132),#156);
#161=IFCCLASSIFICATION('https://www.csiresources.org/standards/uniformat','1998',$,'Uniformat');
#162=IFCCARTESIANPOINT((-19126.403875151052,-3546.4547997236405,0.));
#163=IFCAXIS2PLACEMENT3D(#162,#9,#7);
#164=IFCLOCALPLACEMENT(#102,#163);
#165=IFCCARTESIANPOINT((23000.,0.));
#166=IFCPOLYLINE((#4,#165));
#167=IFCSHAPEREPRESENTATION(#94,'Axis','Curve2D',(#166));
#168=IFCCARTESIANPOINT((11500.000000000002,0.));
#169=IFCAXIS2PLACEMENT2D(#168,#12);
#170=IFCRECTANGLEPROFILEDEF(.AREA.,$,#169,23000.000000000004,199.99999999999784);
#171=IFCAXIS2PLACEMENT3D(#3,$,$);
#172=IFCEXTRUDEDAREASOLID(#170,#171,#9,8000.0000000000009);
#173=IFCSTYLEDITEM(#172,(#128),$);
#174=IFCSHAPEREPRESENTATION(#95,'Body','SweptSolid',(#172));
#175=IFCPRODUCTDEFINITIONSHAPE($,$,(#167,#174));
#176=IFCWALLSTANDARDCASE('3Bddd$RtX4BfXCbPfFfcjE',#20,'Basic Wall:Generic - 200mm:350319',$,'Basic Wall:Generic - 200mm',#164,#175,'350319');
#177=IFCMATERIALLAYERSETUSAGE(#139,.AXIS2.,.NEGATIVE.,100.);
#178=IFCPROPERTYSINGLEVALUE('Category',$,IFCLABEL('Walls'),$);
#179=IFCPROPERTYSET('0z9ScDWfeblqRaH86iGvE5',#20,'Pset_ProductRequirements',$,(#178));
#180=IFCPROPERTYSET('1b90489rEaT21oEV6dfsAZ',#20,'Pset_QuantityTakeOff',$,(#150));
#181=IFCPROPERTYSINGLEVALUE('Reference',$,IFCLABEL('Generic - 200mm'),$);
#182=IFCPROPERTYSET('0RaiE7tNu$OdbGDie77ABy',#20,'Pset_ReinforcementBarPitchOfWall',$,(#181));
#183=IFCPROPERTYSET('0CfvyIMvnjzQoLoUVIG$YR',#20,'Pset_WallCommon',$,(#146,#150,#154,#155));
#184=IFCRELDEFINESBYPROPERTIES('1bQUcQFvnC8xTC_1AGbgu8',#20,$,$,(#176),#179);
#185=IFCRELDEFINESBYPROPERTIES('3AUQ7M9Y17WB5GVpfv5pwu',#20,$,$,(#176),#180);
#186=IFCRELDEFINESBYPROPERTIES('2rF$FP2prEsPy87WwvJPG1',#20,$,$,(#176),#182);
#187=IFCRELDEFINESBYPROPERTIES('2nPy66A9f0S9ZytnC1OGnf',#20,$,$,(#176),#183);
#188=IFCCARTESIANPOINT((16973.596124848951,-3446.4547997236414,0.));
#189=IFCAXIS2PLACEMENT3D(#188,#9,#6);
#190=IFCLOCALPLACEMENT(#102,#189);
#191=IFCCARTESIANPOINT((36000.,0.));
#192=IFCPOLYLINE((#4,#191));
#193=IFCSHAPEREPRESENTATION(#94,'Axis','Curve2D',(#192));
#194=IFCCARTESIANPOINT((18000.,0.));
#195=IFCAXIS2PLACEMENT2D(#194,#11);
#196=IFCRECTANGLEPROFILEDEF(.AREA.,$,#195,36000.,200.);
#197=IFCAXIS2PLACEMENT3D(#3,$,$);
#198=IFCEXTRUDEDAREASOLID(#196,#197,#9,8000.0000000000009);
#199=IFCSTYLEDITEM(#198,(#128),$);
#200=IFCSHAPEREPRESENTATION(#95,'Body','SweptSolid',(#198));
#201=IFCPRODUCTDEFINITIONSHAPE($,$,(#193,#200));
#202=IFCWALLSTANDARDCASE('3Bddd$RtX4BfXCbPfFfcjH',#20,'Basic Wall:Generic - 200mm:350320',$,'Basic Wall:Generic - 200mm',#190,#201,'350320');
#203=IFCMATERIALLAYERSETUSAGE(#139,.AXIS2.,.NEGATIVE.,100.);
#204=IFCPROPERTYSINGLEVALUE('Category',$,IFCLABEL('Walls'),$);
#205=IFCPROPERTYSET('03BxOQao3OB$wTrf6RSce_',#20,'Pset_ProductRequirements',$,(#204));
#206=IFCPROPERTYSET('0mVNMXOhPfqpn_47rWYW4v',#20,'Pset_QuantityTakeOff',$,(#150));
#207=IFCPROPERTYSINGLEVALUE('Reference',$,IFCLABEL('Generic - 200mm'),$);
#208=IFCPROPERTYSET('393682pJFuTvYsHhX7UHbs',#20,'Pset_ReinforcementBarPitchOfWall',$,(#207));
#209=IFCPROPERTYSET('2l04HyaAZArnjJ82qjJcfL',#20,'Pset_WallCommon',$,(#146,#150,#154,#155));
#210=IFCRELDEFINESBYPROPERTIES('3T40tc_T92LRp5feZ9uDb_',#20,$,$,(#202),#205);
#211=IFCRELDEFINESBYPROPERTIES('3oSwFHFnvDtfAUUJyY7tOy',#20,$,$,(#202),#206);
#212=IFCRELDEFINESBYPROPERTIES('2iTmpsLFH2NfHJCJpjrUYn',#20,$,$,(#202),#208);
#213=IFCRELDEFINESBYPROPERTIES('2wiSBBcerCmOTT8Ap4KscL',#20,$,$,(#202),#209);
#214=IFCCARTESIANPOINT((16873.596124848951,19653.54520027636,0.));
#215=IFCAXIS2PLACEMENT3D(#214,#9,#8);
#216=IFCLOCALPLACEMENT(#102,#215);
#217=IFCCARTESIANPOINT((23000.,0.));
#218=IFCPOLYLINE((#4,#217));
#219=IFCSHAPEREPRESENTATION(#94,'Axis','Curve2D',(#218));
#220=IFCCARTESIANPOINT((11500.000000000002,-1.0871303857129533E-12));
#221=IFCAXIS2PLACEMENT2D(#220,#11);
#222=IFCRECTANGLEPROFILEDEF(.AREA.,$,#221,23000.000000000004,200.);
#223=IFCAXIS2PLACEMENT3D(#3,$,$);
#224=IFCEXTRUDEDAREASOLID(#222,#223,#9,8000.0000000000009);
#225=IFCSTYLEDITEM(#224,(#128),$);
#226=IFCSHAPEREPRESENTATION(#95,'Body','SweptSolid',(#224));
#227=IFCPRODUCTDEFINITIONSHAPE($,$,(#219,#226));
#228=IFCWALLSTANDARDCASE('3Bddd$RtX4BfXCbPfFfcjG',#20,'Basic Wall:Generic - 200mm:350321',$,'Basic Wall:Generic - 200mm',#216,#227,'350321');
#229=IFCMATERIALLAYERSETUSAGE(#139,.AXIS2.,.NEGATIVE.,100.);
#230=IFCPROPERTYSINGLEVALUE('Category',$,IFCLABEL('Walls'),$);
#231=IFCPROPERTYSET('1VxSCV7QTUbBZULpvhvHhM',#20,'Pset_ProductRequirements',$,(#230));
#232=IFCPROPERTYSET('3HRsJzr3CDUk5dwcL$2eF9',#20,'Pset_QuantityTakeOff',$,(#150));
#233=IFCPROPERTYSINGLEVALUE('Reference',$,IFCLABEL('Generic - 200mm'),$);
#234=IFCPROPERTYSET('1UfVVHsPLvPoziywjveTKl',#20,'Pset_ReinforcementBarPitchOfWall',$,(#233));
#235=IFCPROPERTYSET('2bZFFxggtRL_tlO$24MQl2',#20,'Pset_WallCommon',$,(#146,#150,#154,#155));
#236=IFCRELDEFINESBYPROPERTIES('3HLrVz82j0NPQjZuoyuMvU',#20,$,$,(#228),#231);
#237=IFCRELDEFINESBYPROPERTIES('3lWcdtB215FPwU$DL66W1o',#20,$,$,(#228),#232);
#238=IFCRELDEFINESBYPROPERTIES('0Cxnj1a6nAcfWESGcV9o93',#20,$,$,(#228),#234);
#239=IFCRELDEFINESBYPROPERTIES('01weX0QoT4kwvmoILYNvoF',#20,$,$,(#228),#235);
#240=IFCCARTESIANPOINT((-533.49999999999989,-1124.));
#241=IFCCARTESIANPOINT((533.49999999999977,-1124.));
#242=IFCCARTESIANPOINT((533.49999999999977,1086.));
#243=IFCCARTESIANPOINT((457.49999999999977,1086.));
#244=IFCCARTESIANPOINT((457.49999999999977,-1048.));
#245=IFCCARTESIANPOINT((-457.4999999999996,-1048.));
#246=IFCCARTESIANPOINT((-457.4999999999996,1086.));
#247=IFCCARTESIANPOINT((-533.49999999999989,1086.));
#248=IFCPOLYLINE((#240,#241,#242,#243,#244,#245,#246,#247,#240));
#249=IFCARBITRARYCLOSEDPROFILEDEF(.AREA.,'0915 x 2134mm',#248);
#250=IFCCARTESIANPOINT((457.50000000000057,200.,1086.));
#251=IFCAXIS2PLACEMENT3D(#250,#7,#5);
#252=IFCEXTRUDEDAREASOLID(#249,#251,#9,24.999999999994451);
#253=IFCCARTESIANPOINT((-1124.,-533.49999999999727));
#254=IFCCARTESIANPOINT((1086.,-533.49999999999727));
#255=IFCCARTESIANPOINT((1086.,-457.50000000000716));
#256=IFCCARTESIANPOINT((-1048.,-457.50000000000716));
#257=IFCCARTESIANPOINT((-1048.,457.50000000000193));
#258=IFCCARTESIANPOINT((1086.,457.50000000000193));
#259=IFCCARTESIANPOINT((1086.,533.5000000000025));
#260=IFCCARTESIANPOINT((-1124.,533.5000000000025));
#261=IFCPOLYLINE((#253,#254,#255,#256,#257,#258,#259,#260,#253));
#262=IFCARBITRARYCLOSEDPROFILEDEF(.AREA.,'0915 x 2134mm',#261);
#263=IFCCARTESIANPOINT((457.50000000000318,-25.,1086.));
#264=IFCAXIS2PLACEMENT3D(#263,#7,#10);
#265=IFCEXTRUDEDAREASOLID(#262,#264,#9,25.000000000005567);
#266=IFCCARTESIANPOINT((-5.3290705182007514E-15,0.));
#267=IFCAXIS2PLACEMENT2D(#266,#11);
#268=IFCRECTANGLEPROFILEDEF(.AREA.,'0915 x 2134mm',#267,51.,914.99999999999977);
#269=IFCCARTESIANPOINT((457.50000000000034,174.49999999999918,0.));
#270=IFCAXIS2PLACEMENT3D(#269,#9,#7);
#271=IFCEXTRUDEDAREASOLID(#268,#270,#9,2133.9999999999991);
#272=IFCCOLOURRGB($,0.46274509803921571,0.27450980392156865,0.20000000000000001);
#273=IFCSURFACESTYLERENDERING(#272,0.,$,$,$,$,IFCNORMALISEDRATIOMEASURE(0.5),IFCSPECULAREXPONENT(128.),.NOTDEFINED.);
#274=IFCSURFACESTYLE('Door - Frame',.BOTH.,(#273));
#275=IFCPRESENTATIONSTYLEASSIGNMENT((#274));
#276=IFCSTYLEDITEM(#252,(#275),$);
#277=IFCSTYLEDITEM(#265,(#275),$);
#278=IFCCOLOURRGB($,0.82352941176470584,0.62352941176470589,0.37254901960784315);
#279=IFCSURFACESTYLERENDERING(#278,0.,$,$,$,$,IFCNORMALISEDRATIOMEASURE(0.5),IFCSPECULAREXPONENT(128.),.NOTDEFINED.);
#280=IFCSURFACESTYLE('Door - Panel',.BOTH.,(#279));
#281=IFCPRESENTATIONSTYLEASSIGNMENT((#280));
#282=IFCSTYLEDITEM(#271,(#281),$);
#283=IFCSHAPEREPRESENTATION(#95,'Body','SweptSolid',(#252,#265,#271));
#284=IFCAXIS2PLACEMENT3D(#3,$,$);
#285=IFCREPRESENTATIONMAP(#284,#283);
#286=IFCDOORLININGPROPERTIES('3Bddd$RtX4BfXCbPjFfckz',#20,'M_Single-Flush:0915 x 2134mm:350364',$,$,$,$,$,$,$,$,$,$,$,$);
#287=IFCDOORPANELPROPERTIES('3Bddd$RtX4BfXCbPXFfckz',#20,'M_Single-Flush:0915 x 2134mm:350364:1',$,$,.SWINGING.,$,.NOTDEFINED.,$);
#288=IFCDOORSTYLE('3Bddd$RtX4BfXCbOzFfclq',#20,'M_Single-Flush:0915 x 2134mm',$,$,(#286,#287,#319,#321),(#285),'49480',.SINGLE_SWING_RIGHT.,.NOTDEFINED.,.F.,.F.);
#289=IFCMATERIAL('Door - Frame');
#290=IFCPRESENTATIONSTYLEASSIGNMENT((#274));
#291=IFCSTYLEDITEM($,(#290),$);
#292=IFCSTYLEDREPRESENTATION(#93,'Style','Material',(#291));
#293=IFCMATERIALDEFINITIONREPRESENTATION($,$,(#292),#289);
#294=IFCMATERIAL('Door - Panel');
#295=IFCPRESENTATIONSTYLEASSIGNMENT((#280));
#296=IFCSTYLEDITEM($,(#295),$);
#297=IFCSTYLEDREPRESENTATION(#93,'Style','Material',(#296));
#298=IFCMATERIALDEFINITIONREPRESENTATION($,$,(#297),#294);
#299=IFCMATERIALLIST((#289,#289,#294));
#300=IFCCARTESIANTRANSFORMATIONOPERATOR3D($,$,#3,1.,$);
#301=IFCMAPPEDITEM(#285,#300);
#302=IFCSHAPEREPRESENTATION(#95,'Body','MappedRepresentation',(#301));
#303=IFCPRODUCTDEFINITIONSHAPE($,$,(#302));
#304=IFCCARTESIANPOINT((7773.5961248489511,-3346.4547997236423,0.));
#305=IFCAXIS2PLACEMENT3D(#304,#9,#6);
#307=IFCDOOR('3Bddd$RtX4BfXCbPfFfckz',#20,'M_Single-Flush:0915 x 2134mm:350364',$,'M_Single-Flush:0915 x 2134mm',#641,#303,'350364',2133.9999999999995,914.99999999999989);
#308=IFCMATERIALLIST((#289,#289,#294));
#309=IFCPROPERTYSINGLEVALUE('Reference',$,IFCIDENTIFIER('0915 x 2134mm'),$);
#310=IFCPROPERTYSINGLEVALUE('IsExternal',$,IFCBOOLEAN(.F.),$);
#311=IFCPROPERTYSET('3WvjmyQYOqOv9X2HTqOeWL',#20,'Pset_DoorCommon',$,(#309,#310));
#312=IFCPROPERTYSINGLEVALUE('Category',$,IFCLABEL('Doors'),$);
#313=IFCPROPERTYSET('2C0h19PRzU2kvxSX04sh$K',#20,'Pset_ProductRequirements',$,(#312));
#314=IFCPROPERTYSET('1B_bbN_ExmeEsOQrshed02',#20,'Pset_QuantityTakeOff',$,(#309));
#315=IFCRELDEFINESBYPROPERTIES('2mgaqbYob7vvIYzUAb6Lqa',#20,$,$,(#307),#311);
#316=IFCRELDEFINESBYPROPERTIES('3mbjm4z894Xv9hxL$DNHT7',#20,$,$,(#307),#313);
#317=IFCRELDEFINESBYPROPERTIES('3KVkST3$zFMQzSIozkRC98',#20,$,$,(#307),#314);
#318=IFCPROPERTYSINGLEVALUE('ThermalTransmittance',$,IFCTHERMALTRANSMITTANCEMEASURE(3.7021000000000002),$);
#319=IFCPROPERTYSET('1XZKhAQajYC35OF29P09Hh',#20,'Pset_DoorCommon',$,(#310,#318));
#320=IFCPROPERTYSINGLEVALUE('Category',$,IFCLABEL('Doors'),$);
#321=IFCPROPERTYSET('2tsd13Zmri8CUzaSin2PMT',#20,'Pset_ProductRequirements',$,(#320));
#322=IFCMAPPEDITEM(#285,#300);
#323=IFCSHAPEREPRESENTATION(#95,'Body','MappedRepresentation',(#322));
#324=IFCPRODUCTDEFINITIONSHAPE($,$,(#323));
#325=IFCCARTESIANPOINT((-10111.403875151047,-3346.4547997236423,0.));
#326=IFCAXIS2PLACEMENT3D(#325,#9,#6);
#328=IFCDOOR('3Bddd$RtX4BfXCbPfFfcl5',#20,'M_Single-Flush:0915 x 2134mm:350436',$,'M_Single-Flush:0915 x 2134mm',#656,#324,'350436',2133.9999999999995,914.99999999999989);
#329=IFCMATERIALLIST((#289,#294));
#330=IFCPROPERTYSET('3IZtaaHuVqWzHU3_hhD3w$',#20,'Pset_DoorCommon',$,(#309,#310));
#331=IFCPROPERTYSINGLEVALUE('Category',$,IFCLABEL('Doors'),$);
#332=IFCPROPERTYSET('3ExR8djDRtvUp7WgA8aJ8N',#20,'Pset_ProductRequirements',$,(#331));
#333=IFCPROPERTYSET('2eC2$Zx_zMXyqmUViM90MQ',#20,'Pset_QuantityTakeOff',$,(#309));
#334=IFCRELDEFINESBYPROPERTIES('1SMYvPgSr2qBEODrY2jgXM',#20,$,$,(#328),#330);
#335=IFCRELDEFINESBYPROPERTIES('1VR5E4I_L0hxDVBx1qBW95',#20,$,$,(#328),#332);
#336=IFCRELDEFINESBYPROPERTIES('0hxnpwShj0ceefeWxI1i5e',#20,$,$,(#328),#333);
#337=IFCMAPPEDITEM(#285,#300);
#338=IFCSHAPEREPRESENTATION(#95,'Body','MappedRepresentation',(#337));
#339=IFCPRODUCTDEFINITIONSHAPE($,$,(#338));
#340=IFCCARTESIANPOINT((16773.596124848951,11453.545200276363,0.));
#341=IFCAXIS2PLACEMENT3D(#340,#9,#8);
#343=IFCDOOR('3Bddd$RtX4BfXCbPfFfcea',#20,'M_Single-Flush:0915 x 2134mm:350469',$,'M_Single-Flush:0915 x 2134mm',#731,#339,'350469',2133.9999999999995,914.99999999999989);
#344=IFCMATERIALLIST((#289,#294));
#345=IFCPROPERTYSET('0P7a8eBt4JPxe_cEfZLlhE',#20,'Pset_DoorCommon',$,(#309,#310));
#346=IFCPROPERTYSINGLEVALUE('Category',$,IFCLABEL('Doors'),$);
#347=IFCPROPERTYSET('27L6vmQL0CbVWhyDM5zhCJ',#20,'Pset_ProductRequirements',$,(#346));
#348=IFCPROPERTYSET('3anqcfuur87dZ055sMFOEH',#20,'Pset_QuantityTakeOff',$,(#309));
#349=IFCRELDEFINESBYPROPERTIES('0a45nHVcLF_94HJ7nio8cD',#20,$,$,(#343),#345);
#350=IFCRELDEFINESBYPROPERTIES('31u_oo7ID1HwY$mGPDFLKe',#20,$,$,(#343),#347);
#351=IFCRELDEFINESBYPROPERTIES('0NagIulEvEyxxFW$_llQNw',#20,$,$,(#343),#348);
#352=IFCCARTESIANPOINT((8.4376949871511897E-15,0.));
#353=IFCAXIS2PLACEMENT2D(#352,#11);
#354=IFCRECTANGLEPROFILEDEF(.AREA.,'0406 x 0610mm',#353,11.999999999999996,279.99999999999733);
#355=IFCCARTESIANPOINT((203.,159.,63.));
#356=IFCAXIS2PLACEMENT3D(#355,#9,#8);
#357=IFCEXTRUDEDAREASOLID(#354,#356,#9,484.00000000000813);
#358=IFCCARTESIANPOINT((-184.,-286.));
#359=IFCCARTESIANPOINT((184.,-286.));
#360=IFCCARTESIANPOINT((184.,286.));
#361=IFCCARTESIANPOINT((-184.,286.));
#362=IFCPOLYLINE((#358,#359,#360,#361,#358));
#363=IFCCARTESIANPOINT((-140.,-242.));
#364=IFCCARTESIANPOINT((-140.,242.));
#365=IFCCARTESIANPOINT((140.,242.));
#366=IFCCARTESIANPOINT((140.,-242.));
#367=IFCPOLYLINE((#363,#364,#365,#366,#363));
#368=IFCARBITRARYPROFILEDEFWITHVOIDS(.AREA.,'0406 x 0610mm',#362,(#367));
#369=IFCCARTESIANPOINT((203.,137.,305.));
#370=IFCAXIS2PLACEMENT3D(#369,#7,#5);
#371=IFCEXTRUDEDAREASOLID(#368,#370,#9,44.000000000027441);
#372=IFCCARTESIANPOINT((-203.,-305.));
#373=IFCCARTESIANPOINT((203.,-305.));
#374=IFCCARTESIANPOINT((203.,305.));
#375=IFCCARTESIANPOINT((-203.,305.));
#376=IFCPOLYLINE((#372,#373,#374,#375,#372));
#377=IFCCARTESIANPOINT((-184.,-286.));
#378=IFCCARTESIANPOINT((-184.,286.));
#379=IFCCARTESIANPOINT((184.,286.));
#380=IFCCARTESIANPOINT((184.,-286.));
#381=IFCPOLYLINE((#377,#378,#379,#380,#377));
#382=IFCARBITRARYPROFILEDEFWITHVOIDS(.AREA.,'0406 x 0610mm',#376,(#381));
#383=IFCCARTESIANPOINT((203.,137.,305.));
#384=IFCAXIS2PLACEMENT3D(#383,#7,#5);
#385=IFCEXTRUDEDAREASOLID(#382,#384,#9,63.000000000027434);
#386=IFCCARTESIANPOINT((-203.,-305.));
#387=IFCCARTESIANPOINT((203.,-305.));
#388=IFCCARTESIANPOINT((203.,305.));
#389=IFCCARTESIANPOINT((-203.,305.));
#390=IFCPOLYLINE((#386,#387,#388,#389,#386));
#391=IFCCARTESIANPOINT((-171.,-273.));
#392=IFCCARTESIANPOINT((-171.,273.));
#393=IFCCARTESIANPOINT((171.,273.));
#394=IFCCARTESIANPOINT((171.,-273.));
#395=IFCPOLYLINE((#391,#392,#393,#394,#391));
#396=IFCARBITRARYPROFILEDEFWITHVOIDS(.AREA.,'0406 x 0610mm',#390,(#395));
#397=IFCCARTESIANPOINT((203.,0.,305.));
#398=IFCAXIS2PLACEMENT3D(#397,#7,#5);
#399=IFCEXTRUDEDAREASOLID(#396,#398,#9,136.99999999997257);
#400=IFCCOLOURRGB($,0.,0.50196078431372548,0.75294117647058822);
#401=IFCSURFACESTYLERENDERING(#400,0.90000000000000002,$,$,$,$,IFCNORMALISEDRATIOMEASURE(0.5),IFCSPECULAREXPONENT(12.),.NOTDEFINED.);
#402=IFCSURFACESTYLE('Glass',.BOTH.,(#401));
#403=IFCPRESENTATIONSTYLEASSIGNMENT((#402));
#404=IFCSTYLEDITEM(#357,(#403),$);
#405=IFCCOLOURRGB($,0.8784313725490196,0.69803921568627447,0.49411764705882355);
#406=IFCSURFACESTYLERENDERING(#405,0.,$,$,$,$,IFCNORMALISEDRATIOMEASURE(0.5),IFCSPECULAREXPONENT(128.),.NOTDEFINED.);
#407=IFCSURFACESTYLE('Sash',.BOTH.,(#406));
#408=IFCPRESENTATIONSTYLEASSIGNMENT((#407));
#409=IFCSTYLEDITEM(#371,(#408),$);
#410=IFCSTYLEDITEM(#385,(#408),$);
#411=IFCSTYLEDITEM(#399,(#408),$);
#412=IFCSHAPEREPRESENTATION(#95,'Body','SweptSolid',(#357,#371,#385,#399));
#413=IFCAXIS2PLACEMENT3D(#3,$,$);
#414=IFCREPRESENTATIONMAP(#413,#412);
#415=IFCWINDOWLININGPROPERTIES('3Bddd$RtX4BfXCbPjFfcfp',#20,'M_Fixed:0406 x 0610mm:350546',$,$,$,$,$,$,$,$,$,$);
#416=IFCWINDOWSTYLE('04qVcM0CDCrA1rF8kqvXOd',#20,'M_Fixed:0406 x 0610mm',$,$,(#415,#445,#447),(#414),'33067',.NOTDEFINED.,.NOTDEFINED.,.F.,.F.);
#417=IFCMATERIAL('Glass');
#418=IFCPRESENTATIONSTYLEASSIGNMENT((#402));
#419=IFCSTYLEDITEM($,(#418),$);
#420=IFCSTYLEDREPRESENTATION(#93,'Style','Material',(#419));
#421=IFCMATERIALDEFINITIONREPRESENTATION($,$,(#420),#417);
#422=IFCMATERIAL('Sash');
#423=IFCPRESENTATIONSTYLEASSIGNMENT((#407));
#424=IFCSTYLEDITEM($,(#423),$);
#425=IFCSTYLEDREPRESENTATION(#93,'Style','Material',(#424));
#426=IFCMATERIALDEFINITIONREPRESENTATION($,$,(#425),#422);
#427=IFCMATERIALLIST((#417,#422,#422,#422));
#428=IFCMAPPEDITEM(#414,#300);
#429=IFCSHAPEREPRESENTATION(#95,'Body','MappedRepresentation',(#428));
#430=IFCPRODUCTDEFINITIONSHAPE($,$,(#429));
#431=IFCCARTESIANPOINT((-15620.403875151049,-3346.4547997236423,915.));
#432=IFCAXIS2PLACEMENT3D(#431,#9,#6);
#434=IFCWINDOW('3Bddd$RtX4BfXCbPfFfcfp',#20,'M_Fixed:0406 x 0610mm:350546',$,'M_Fixed:0406 x 0610mm',#671,#430,'350546',609.99999999999989,406.00000000000085);
#435=IFCMATERIALLIST((#417,#422,#422,#422));
#436=IFCPROPERTYSINGLEVALUE('Category',$,IFCLABEL('Windows'),$);
#437=IFCPROPERTYSET('0rzHqOxfiusJDhaD1mPB_j',#20,'Pset_ProductRequirements',$,(#436));
#438=IFCPROPERTYSINGLEVALUE('Reference',$,IFCIDENTIFIER('0406 x 0610mm'),$);
#439=IFCPROPERTYSET('0lDYaUr6RB9VvIo19GqjoK',#20,'Pset_QuantityTakeOff',$,(#438));
#440=IFCPROPERTYSET('2B5dNdjLBoXHf1vlcOxsI8',#20,'Pset_WindowCommon',$,(#146,#438));
#441=IFCRELDEFINESBYPROPERTIES('3tv0ynPuH0QPFzwC740QY8',#20,$,$,(#434),#437);
#442=IFCRELDEFINESBYPROPERTIES('3fyW1MPKPCPefdIe_DwKnn',#20,$,$,(#434),#439);
#443=IFCRELDEFINESBYPROPERTIES('2dLLW$JnD58vi4e_PC9OIi',#20,$,$,(#434),#440);
#444=IFCPROPERTYSINGLEVALUE('Category',$,IFCLABEL('Windows'),$);
#445=IFCPROPERTYSET('2UEhFGldjenJL01M$5lmpB',#20,'Pset_ProductRequirements',$,(#444));
#446=IFCPROPERTYSINGLEVALUE('ThermalTransmittance',$,IFCTHERMALTRANSMITTANCEMEASURE(3.6886000000000001),$);
#447=IFCPROPERTYSET('3D7bWsNPiQgGWJ7oNbEdN8',#20,'Pset_WindowCommon',$,(#310,#446));
#448=IFCMAPPEDITEM(#414,#300);
#449=IFCSHAPEREPRESENTATION(#95,'Body','MappedRepresentation',(#448));
#450=IFCPRODUCTDEFINITIONSHAPE($,$,(#449));
#451=IFCCARTESIANPOINT((-6214.4038751510479,-3346.4547997236423,915.));
#452=IFCAXIS2PLACEMENT3D(#451,#9,#6);
#454=IFCWINDOW('3Bddd$RtX4BfXCbPfFfcgg',#20,'M_Fixed:0406 x 0610mm:350603',$,'M_Fixed:0406 x 0610mm',#686,#450,'350603',609.99999999999989,405.99999999999977);
#455=IFCMATERIALLIST((#417,#422));
#456=IFCPROPERTYSINGLEVALUE('Category',$,IFCLABEL('Windows'),$);
#457=IFCPROPERTYSET('2SUHxidt2J0MPvSAVv6Bt0',#20,'Pset_ProductRequirements',$,(#456));
#458=IFCPROPERTYSET('3kUPzh9Lp_e7ESoMd0GpDO',#20,'Pset_QuantityTakeOff',$,(#438));
#459=IFCPROPERTYSET('2b308R8XsuMAZaP$t8j3q1',#20,'Pset_WindowCommon',$,(#310,#438));
#460=IFCRELDEFINESBYPROPERTIES('1D3dQ3w9z6$v8ENQsZwta$',#20,$,$,(#454),#457);
#461=IFCRELDEFINESBYPROPERTIES('3H7fUF3rXAoB88YPdyhsEy',#20,$,$,(#454),#458);
#462=IFCRELDEFINESBYPROPERTIES('1MwB8fVnTC5Qq7EmUYvXh9',#20,$,$,(#454),#459);
#463=IFCMAPPEDITEM(#414,#300);
#464=IFCSHAPEREPRESENTATION(#95,'Body','MappedRepresentation',(#463));
#465=IFCPRODUCTDEFINITIONSHAPE($,$,(#464));
#466=IFCCARTESIANPOINT((3191.5961248489534,-3346.4547997236423,915.));
#467=IFCAXIS2PLACEMENT3D(#466,#9,#6);
#469=IFCWINDOW('3Bddd$RtX4BfXCbPfFfcg8',#20,'M_Fixed:0406 x 0610mm:350633',$,'M_Fixed:0406 x 0610mm',#701,#465,'350633',609.99999999999989,405.99999999999977);
#470=IFCMATERIALLIST((#417,#422));
#471=IFCPROPERTYSINGLEVALUE('Category',$,IFCLABEL('Windows'),$);
#472=IFCPROPERTYSET('3pQGzorlnugPZkKRx3B_qr',#20,'Pset_ProductRequirements',$,(#471));
#473=IFCPROPERTYSET('3gHt3NEVa3w1pPqNEcQv0t',#20,'Pset_QuantityTakeOff',$,(#438));
#474=IFCPROPERTYSET('3r2VDNVxIt70qsB3qWedgi',#20,'Pset_WindowCommon',$,(#310,#438));
#475=IFCRELDEFINESBYPROPERTIES('1NpGvDTGn9JByA8ahqCPIH',#20,$,$,(#469),#472);
#476=IFCRELDEFINESBYPROPERTIES('3iPyoT9dXC$wNRoh10Bjta',#20,$,$,(#469),#473);
#477=IFCRELDEFINESBYPROPERTIES('2GoYehXuL8cAhEZKQu0_8C',#20,$,$,(#469),#474);
#478=IFCMAPPEDITEM(#414,#300);
#479=IFCSHAPEREPRESENTATION(#95,'Body','MappedRepresentation',(#478));
#480=IFCPRODUCTDEFINITIONSHAPE($,$,(#479));
#481=IFCCARTESIANPOINT((9773.5961248489493,-3346.4547997236423,1783.9489447633468));
#482=IFCAXIS2PLACEMENT3D(#481,#9,#6);
#484=IFCWINDOW('3Bddd$RtX4BfXCbPfFfche',#20,'M_Fixed:0406 x 0610mm:350665',$,'M_Fixed:0406 x 0610mm',#716,#480,'350665',609.99999999999989,405.99999999999977);
#485=IFCMATERIALLIST((#417,#422));
#486=IFCPROPERTYSINGLEVALUE('Category',$,IFCLABEL('Windows'),$);
#487=IFCPROPERTYSET('1$$Kk9shQpPczkDzaU08zl',#20,'Pset_ProductRequirements',$,(#486));
#488=IFCPROPERTYSET('3iW3MYepGU$MzEiyCXnohy',#20,'Pset_QuantityTakeOff',$,(#438));
#489=IFCPROPERTYSET('2LEHh7gl617J8lO_SBAY2e',#20,'Pset_WindowCommon',$,(#310,#438));
#490=IFCRELDEFINESBYPROPERTIES('1tH$gHkWzFNvpjR6KcVzdW',#20,$,$,(#484),#487);
#491=IFCRELDEFINESBYPROPERTIES('1vchL3kUDBxQpqufA1NCJS',#20,$,$,(#484),#488);
#492=IFCRELDEFINESBYPROPERTIES('2iuY$SkU58dPnXv_PG9GEr',#20,$,$,(#484),#489);
#493=IFCMAPPEDITEM(#414,#300);
#494=IFCSHAPEREPRESENTATION(#95,'Body','MappedRepresentation',(#493));
#495=IFCPRODUCTDEFINITIONSHAPE($,$,(#494));
#496=IFCCARTESIANPOINT((16773.596124848951,-1940.4547997236436,2475.8823609357446));
#497=IFCAXIS2PLACEMENT3D(#496,#9,#8);
#499=IFCWINDOW('3Bddd$RtX4BfXCbPfFfch6',#20,'M_Fixed:0406 x 0610mm:350695',$,'M_Fixed:0406 x 0610mm',#746,#495,'350695',609.99999999999886,405.99999999999977);
#500=IFCMATERIALLIST((#417,#422));
#501=IFCPROPERTYSINGLEVALUE('Category',$,IFCLABEL('Windows'),$);
#502=IFCPROPERTYSET('2rbly0kRB4eu$kFfAkkCG6',#20,'Pset_ProductRequirements',$,(#501));
#503=IFCPROPERTYSET('0XwpUg0uH930a3TAhwsSvw',#20,'Pset_QuantityTakeOff',$,(#438));
#504=IFCPROPERTYSET('2ixopEAdoB$SD3ORaNp291',#20,'Pset_WindowCommon',$,(#310,#438));
#505=IFCRELDEFINESBYPROPERTIES('1ZMjMRzCf7uf5xxPdGeFvl',#20,$,$,(#499),#502);
#506=IFCRELDEFINESBYPROPERTIES('0hQnYSVJL0jRyLymsMiLS5',#20,$,$,(#499),#503);
#507=IFCRELDEFINESBYPROPERTIES('2Tmwu4QNH2_xOgOv8$1Shp',#20,$,$,(#499),#504);
#508=IFCMAPPEDITEM(#414,#300);
#509=IFCSHAPEREPRESENTATION(#95,'Body','MappedRepresentation',(#508));
#510=IFCPRODUCTDEFINITIONSHAPE($,$,(#509));
#511=IFCCARTESIANPOINT((16773.596124848951,8256.5452002763595,915.));
#512=IFCAXIS2PLACEMENT3D(#511,#9,#8);
#514=IFCWINDOW('3Bddd$RtX4BfXCbPfFfcaa',#20,'M_Fixed:0406 x 0610mm:350725',$,'M_Fixed:0406 x 0610mm',#761,#510,'350725',609.99999999999989,405.99999999999977);
#515=IFCMATERIALLIST((#417,#422));
#516=IFCPROPERTYSINGLEVALUE('Category',$,IFCLABEL('Windows'),$);
#517=IFCPROPERTYSET('3R5je8mBoaquXfplvHZqXl',#20,'Pset_ProductRequirements',$,(#516));
#518=IFCPROPERTYSET('2xrIaG2MNY1TSBD8UrdExS',#20,'Pset_QuantityTakeOff',$,(#438));
#519=IFCPROPERTYSET('0pAf5MqNVjuuW9tDiDYizh',#20,'Pset_WindowCommon',$,(#310,#438));
#520=IFCRELDEFINESBYPROPERTIES('09puCuDOz7Vwx4wAIk4a$t',#20,$,$,(#514),#517);
#521=IFCRELDEFINESBYPROPERTIES('0ThceiqqrDHBNkWkPctmRZ',#20,$,$,(#514),#518);
#522=IFCRELDEFINESBYPROPERTIES('2MSg1C35P7KOdBuoAxzFur',#20,$,$,(#514),#519);
#523=IFCMAPPEDITEM(#414,#300);
#524=IFCSHAPEREPRESENTATION(#95,'Body','MappedRepresentation',(#523));
#525=IFCPRODUCTDEFINITIONSHAPE($,$,(#524));
#526=IFCCARTESIANPOINT((16773.596124848951,15453.545200276361,915.));
#527=IFCAXIS2PLACEMENT3D(#526,#9,#8);
#529=IFCWINDOW('3Bddd$RtX4BfXCbPfFfca6',#20,'M_Fixed:0406 x 0610mm:350759',$,'M_Fixed:0406 x 0610mm',#776,#525,'350759',609.99999999999989,406.00000000000085);
#530=IFCMATERIALLIST((#417,#422));
#531=IFCPROPERTYSINGLEVALUE('Category',$,IFCLABEL('Windows'),$);
#532=IFCPROPERTYSET('1HQz443WiqybfYUakvUBqp',#20,'Pset_ProductRequirements',$,(#531));
#533=IFCPROPERTYSET('1ICtmfJGBdIdQoQnRbL_tj',#20,'Pset_QuantityTakeOff',$,(#438));
#534=IFCPROPERTYSET('1Z8rf0iUgPNXtzs9xOlI1Z',#20,'Pset_WindowCommon',$,(#310,#438));
#535=IFCRELDEFINESBYPROPERTIES('2TqoCd13zDGhRpvNJ3Unrw',#20,$,$,(#529),#532);
#536=IFCRELDEFINESBYPROPERTIES('2Pkr3GltL0gOuQjJtkNF9F',#20,$,$,(#529),#533);
#537=IFCRELDEFINESBYPROPERTIES('35xz1tp8HCSeX34MN_xNSi',#20,$,$,(#529),#534);
#538=IFCMAPPEDITEM(#414,#300);
#539=IFCSHAPEREPRESENTATION(#95,'Body','MappedRepresentation',(#538));
#540=IFCPRODUCTDEFINITIONSHAPE($,$,(#539));
#541=IFCCARTESIANPOINT((9367.5961248489493,19453.545200276363,170.));
#542=IFCAXIS2PLACEMENT3D(#541,$,$);
#544=IFCWINDOW('3Bddd$RtX4BfXCbPfFfcba',#20,'M_Fixed:0406 x 0610mm:350789',$,'M_Fixed:0406 x 0610mm',#626,#540,'350789',609.99999999999886,406.00000000000085);
#545=IFCMATERIALLIST((#417,#422));
#546=IFCPROPERTYSINGLEVALUE('Category',$,IFCLABEL('Windows'),$);
#547=IFCPROPERTYSET('0Q4bCh$KSxMX7Fx8eOKVc9',#20,'Pset_ProductRequirements',$,(#546));
#548=IFCPROPERTYSET('3uDAzuW6wzek5mtBqWmC7l',#20,'Pset_QuantityTakeOff',$,(#438));
#549=IFCPROPERTYSET('2xyDSDsFJecEOuyuCKRICz',#20,'Pset_WindowCommon',$,(#310,#438));
#550=IFCRELDEFINESBYPROPERTIES('0fNY4oK$X7KOpALVQmQib0',#20,$,$,(#544),#547);
#551=IFCRELDEFINESBYPROPERTIES('1XAScyoGHCGu3LmBCl7kb_',#20,$,$,(#544),#548);
#552=IFCRELDEFINESBYPROPERTIES('2TNrXhPYnEffqMlDz$Nqes',#20,$,$,(#544),#549);
#553=IFCPROPERTYSINGLEVALUE('Name',$,IFCLABEL('Level 1'),$);
#554=IFCPROPERTYSET('3Y3tOxUmSl43Gede33WYGI',#20,'Pset_AirSideSystemInformation',$,(#553));
#555=IFCPROPERTYSINGLEVALUE('AboveGround',$,IFCLOGICAL(.U.),$);
#556=IFCPROPERTYSET('0zJQ$GvJf8nhynNso36HdK',#20,'Pset_BuildingStoreyCommon',$,(#555));
#557=IFCPROPERTYSINGLEVALUE('Name',$,IFCLABEL('Level 1'),$);
#558=IFCPROPERTYSINGLEVALUE('Category',$,IFCLABEL('Levels'),$);
#559=IFCPROPERTYSET('1CewRlKMbECRBieM4yv1A4',#20,'Pset_ProductRequirements',$,(#557,#558));
#560=IFCRELDEFINESBYPROPERTIES('00BfwddVjAtQRKzMh$0G$G',#20,$,$,(#103),#554);
#561=IFCRELDEFINESBYPROPERTIES('3k5hGvy2nAO9pihQ$DUw_x',#20,$,$,(#103),#556);
#562=IFCRELDEFINESBYPROPERTIES('0LYf_dyIDBKOCwnBFAc0Ix',#20,$,$,(#103),#559);
#563=IFCRELCONTAINEDINSPATIALSTRUCTURE('3Zu5Bv0LOHrPC10066FoQQ',#20,$,$,(#132,#176,#202,#228,#307,#328,#343),#103);
#564=IFCPROPERTYSINGLEVALUE('Name',$,IFCLABEL('Level 2'),$);
#565=IFCPROPERTYSET('0GkTlOVEtTJ5dm$CwKpmmJ',#20,'Pset_AirSideSystemInformation',$,(#564));
#566=IFCPROPERTYSET('2ZEjv1iIFtFu1OXrdLHnyi',#20,'Pset_BuildingStoreyCommon',$,(#555));
#567=IFCPROPERTYSINGLEVALUE('Name',$,IFCLABEL('Level 2'),$);
#568=IFCPROPERTYSINGLEVALUE('Category',$,IFCLABEL('Levels'),$);
#569=IFCPROPERTYSET('38MYFUNQ$p1JONczQfW1S2',#20,'Pset_ProductRequirements',$,(#567,#568));
#570=IFCRELDEFINESBYPROPERTIES('2uy$010Bj7leWq_6Z2JpM5',#20,$,$,(#107),#565);
#571=IFCRELDEFINESBYPROPERTIES('1XaHqkwg92mxMG7NP6hGGM',#20,$,$,(#107),#566);
#572=IFCRELDEFINESBYPROPERTIES('2NO8$T2k92_Rd1QRn52gaF',#20,$,$,(#107),#569);
#573=IFCRELCONTAINEDINSPATIALSTRUCTURE('15Z0v90RiHrPC20066FoKR',#20,$,$,(#434,#454,#469,#484,#499,#514,#529,#544),#107);
#574=IFCRELAGGREGATES('2CM8Sihxb0nhZDITq23qTs',#20,$,$,#98,(#110));
#575=IFCRELAGGREGATES('3SIS9m0V98OfnIe$A7U$U$',#20,$,$,#110,(#100));
#576=IFCRELAGGREGATES('27PCKGLxT4mxtV9cw6mgBW',#20,$,$,#100,(#103,#107));
#577=IFCPROPERTYSINGLEVALUE('NumberOfStoreys',$,IFCINTEGER(2),$);
#578=IFCPROPERTYSINGLEVALUE('IsLandmarked',$,IFCLOGICAL(.U.),$);
#579=IFCPROPERTYSET('0iMb8vV5EBmdorHtvcdQ65',#20,'Pset_BuildingCommon',$,(#577,#578));
#580=IFCPROPERTYSINGLEVALUE('Category',$,IFCLABEL('Project Information'),$);
#581=IFCPROPERTYSET('15GFAbyL1FROM4LSfUx_Z3',#20,'Pset_ProductRequirements',$,(#580));
#582=IFCRELDEFINESBYPROPERTIES('28nsNQ2Dv0HfSzHyvhnkOj',#20,$,$,(#100),#579);
#583=IFCRELDEFINESBYPROPERTIES('1Qv9jjY$PC6P4WpOMFN4oH',#20,$,$,(#100),#581);
#584=IFCRELASSOCIATESMATERIAL('05ooHizND84vIQRXxsxVtD',#20,$,$,(#132),#140);
#585=IFCRELASSOCIATESMATERIAL('2mlSKzepPDuO3fPRXLkPFW',#20,$,$,(#141),#139);
#586=IFCRELASSOCIATESMATERIAL('0QvF7V7ZL3WuMyR1MVEQQI',#20,$,$,(#176),#177);
#587=IFCRELASSOCIATESMATERIAL('1AyDBO1mrFqgT503X10Mk2',#20,$,$,(#202),#203);
#588=IFCRELASSOCIATESMATERIAL('1w56ZSZSn79AlArUJ_QVFV',#20,$,$,(#228),#229);
#589=IFCRELASSOCIATESMATERIAL('3g7gC_brz68eC0PZt6cm2u',#20,$,$,(#288),#299);
#590=IFCRELASSOCIATESMATERIAL('2cG3mkGfz4cu2ni9y6e36Q',#20,$,$,(#307),#308);
#591=IFCRELASSOCIATESMATERIAL('3fzgg0uEr3pe3I6JbxLs2j',#20,$,$,(#328),#329);
#592=IFCRELASSOCIATESMATERIAL('2lPZ2_atn5iwLaBDu0zONS',#20,$,$,(#343),#344);
#593=IFCRELASSOCIATESMATERIAL('0jGPi_$RT1OPA9tz10Oirn',#20,$,$,(#416),#427);
#594=IFCRELASSOCIATESMATERIAL('09QVgyC2P5IxB0_URRtSY1',#20,$,$,(#434),#435);
#595=IFCRELASSOCIATESMATERIAL('0bKRC07pT82xiZKhQ6E6Tg',#20,$,$,(#454),#455);
#596=IFCRELASSOCIATESMATERIAL('1xUgiHlR50KBOkbtcgM8T2',#20,$,$,(#469),#470);
#597=IFCRELASSOCIATESMATERIAL('3E1I8AAHXFv8bg$gr$s4Zo',#20,$,$,(#484),#485);
#598=IFCRELASSOCIATESMATERIAL('2oMEsnWgf5pOBLiDP2rYmr',#20,$,$,(#499),#500);
#599=IFCRELASSOCIATESMATERIAL('1EwVIes4nDIxl1RPLTlR8D',#20,$,$,(#514),#515);
#600=IFCRELASSOCIATESMATERIAL('2V2HV33EL9cxfhxso9xVnn',#20,$,$,(#529),#530);
#601=IFCRELASSOCIATESMATERIAL('0DezRyiuX6cAGrWorDu2tJ',#20,$,$,(#544),#545);
#602=IFCRELDEFINESBYTYPE('3wwoAwoQPD3QgONris8jQe',#20,$,$,(#132,#176,#202,#228),#141);
#603=IFCRELDEFINESBYTYPE('1gtpgug2vCAfaIBvfAfpAZ',#20,$,$,(#307,#328,#343),#288);
#604=IFCRELDEFINESBYTYPE('3vRB5Pva59PA4hC7faJSxA',#20,$,$,(#434,#454,#469,#484,#499,#514,#529,#544),#416);
#605=IFCRELCONNECTSPATHELEMENTS('3QZZfOjXL4Q8dkO_w0LP1Q',#20,'3Bddd$RtX4BfXCbPfFfcjF|3Bddd$RtX4BfXCbPfFfcjE','Structural',$,#132,#176,(),(),.ATEND.,.ATSTART.);
#606=IFCRELCONNECTSPATHELEMENTS('3xfYZqddP4_QPcvZP$aDFp',#20,'3Bddd$RtX4BfXCbPfFfcjF|3Bddd$RtX4BfXCbPfFfcjG','Structural',$,#132,#228,(),(),.ATSTART.,.ATEND.);
#607=IFCRELCONNECTSPATHELEMENTS('2Q5kIoSw97JfKK$50hkOaa',#20,'3Bddd$RtX4BfXCbPfFfcjE|3Bddd$RtX4BfXCbPfFfcjH','Structural',$,#176,#202,(),(),.ATEND.,.ATSTART.);
#608=IFCRELCONNECTSPATHELEMENTS('3xGX1UF$v2cxSgw4E$i6qb',#20,'3Bddd$RtX4BfXCbPfFfcjH|3Bddd$RtX4BfXCbPfFfcjG','Structural',$,#202,#228,(),(),.ATEND.,.ATSTART.);
#609=IFCPRESENTATIONLAYERASSIGNMENT('A-WALL',$,(#119,#130,#167,#174,#193,#200,#219,#226),$);
#610=IFCPRESENTATIONLAYERASSIGNMENT('A-DOOR',$,(#283,#302,#323,#338),$);
#611=IFCPRESENTATIONLAYERASSIGNMENT('A-GLAZ',$,(#412,#429,#449,#464,#479,#494,#509,#524,#539),$);
#612=IFCCARTESIANPOINT((304.99999999999943,203.00000000000313));
#613=IFCAXIS2PLACEMENT2D(#612,#11);
#614=IFCRECTANGLEPROFILEDEF(.AREA.,$,#613,609.99999999999898,405.99999999999977);
#615=IFCAXIS2PLACEMENT3D(#3,#7,#9);
#616=IFCEXTRUDEDAREASOLID(#614,#615,#9,200.);
#617=IFCSHAPEREPRESENTATION(#95,'Body','SweptSolid',(#616));
#618=IFCPRODUCTDEFINITIONSHAPE($,$,(#617));
#619=IFCCARTESIANPOINT((28594.,-100.,4170.));
#620=IFCAXIS2PLACEMENT3D(#619,$,$);
#621=IFCLOCALPLACEMENT(#116,#620);
#622=IFCOPENINGELEMENT('3Bddd$RtX4BfXCbObFfcba',#20,'M_Fixed:0406 x 0610mm:350789:1',$,'Opening',#621,#618,'350789');
#623=IFCRELVOIDSELEMENT('3Bddd$RtX4BfXCbOvFfcba',#20,$,$,#132,#622);
#624=IFCRELFILLSELEMENT('2$ZJJl$mbDyAubtMpxpO_3',#20,$,$,#622,#544);
#625=IFCAXIS2PLACEMENT3D(#3,$,$);
#626=IFCLOCALPLACEMENT(#621,#625);
#627=IFCCARTESIANPOINT((1066.9999999999998,457.5));
#628=IFCAXIS2PLACEMENT2D(#627,#13);
#629=IFCRECTANGLEPROFILEDEF(.AREA.,$,#628,914.99999999999977,2133.9999999999995);
#630=IFCAXIS2PLACEMENT3D(#3,#7,#9);
#631=IFCEXTRUDEDAREASOLID(#629,#630,#9,200.);
#632=IFCSHAPEREPRESENTATION(#95,'Body','SweptSolid',(#631));
#633=IFCPRODUCTDEFINITIONSHAPE($,$,(#632));
#634=IFCCARTESIANPOINT((9200.,-100.,0.));
#635=IFCAXIS2PLACEMENT3D(#634,$,$);
#636=IFCLOCALPLACEMENT(#190,#635);
#637=IFCOPENINGELEMENT('3Bddd$RtX4BfXCbObFfckz',#20,'M_Single-Flush:0915 x 2134mm:350364:1',$,'Opening',#636,#633,'350364');
#638=IFCRELVOIDSELEMENT('3Bddd$RtX4BfXCbOvFfckz',#20,$,$,#202,#637);
#639=IFCRELFILLSELEMENT('1g8JMqeEj70giRbIXbfmJN',#20,$,$,#637,#307);
#640=IFCAXIS2PLACEMENT3D(#3,$,$);
#641=IFCLOCALPLACEMENT(#636,#640);
#642=IFCCARTESIANPOINT((1066.9999999999998,457.5));
#643=IFCAXIS2PLACEMENT2D(#642,#13);
#644=IFCRECTANGLEPROFILEDEF(.AREA.,$,#643,914.99999999999977,2133.9999999999995);
#645=IFCAXIS2PLACEMENT3D(#3,#7,#9);
#646=IFCEXTRUDEDAREASOLID(#644,#645,#9,200.);
#647=IFCSHAPEREPRESENTATION(#95,'Body','SweptSolid',(#646));
#648=IFCPRODUCTDEFINITIONSHAPE($,$,(#647));
#649=IFCCARTESIANPOINT((27085.,-100.,0.));
#650=IFCAXIS2PLACEMENT3D(#649,$,$);
#651=IFCLOCALPLACEMENT(#190,#650);
#652=IFCOPENINGELEMENT('3Bddd$RtX4BfXCbObFfcl5',#20,'M_Single-Flush:0915 x 2134mm:350436:1',$,'Opening',#651,#648,'350436');
#653=IFCRELVOIDSELEMENT('3Bddd$RtX4BfXCbOvFfcl5',#20,$,$,#202,#652);
#654=IFCRELFILLSELEMENT('3VZEzmzcb7_w4r1drFvZLj',#20,$,$,#652,#328);
#655=IFCAXIS2PLACEMENT3D(#3,$,$);
#656=IFCLOCALPLACEMENT(#651,#655);
#657=IFCCARTESIANPOINT((304.99999999999994,202.99999999999878));
#658=IFCAXIS2PLACEMENT2D(#657,#11);
#659=IFCRECTANGLEPROFILEDEF(.AREA.,$,#658,609.99999999999898,405.99999999999972);
#660=IFCAXIS2PLACEMENT3D(#3,#7,#9);
#661=IFCEXTRUDEDAREASOLID(#659,#660,#9,200.);
#662=IFCSHAPEREPRESENTATION(#95,'Body','SweptSolid',(#661));
#663=IFCPRODUCTDEFINITIONSHAPE($,$,(#662));
#664=IFCCARTESIANPOINT((32594.,-100.,4915.));
#665=IFCAXIS2PLACEMENT3D(#664,$,$);
#666=IFCLOCALPLACEMENT(#190,#665);
#667=IFCOPENINGELEMENT('3Bddd$RtX4BfXCbObFfcfp',#20,'M_Fixed:0406 x 0610mm:350546:1',$,'Opening',#666,#663,'350546');
#668=IFCRELVOIDSELEMENT('3Bddd$RtX4BfXCbOvFfcfp',#20,$,$,#202,#667);
#669=IFCRELFILLSELEMENT('00ktU$ipr8ZQ2X$dxJIk07',#20,$,$,#667,#434);
#670=IFCAXIS2PLACEMENT3D(#3,$,$);
#671=IFCLOCALPLACEMENT(#666,#670);
#672=IFCCARTESIANPOINT((304.99999999999994,202.99999999999878));
#673=IFCAXIS2PLACEMENT2D(#672,#11);
#674=IFCRECTANGLEPROFILEDEF(.AREA.,$,#673,609.99999999999898,405.99999999999972);
#675=IFCAXIS2PLACEMENT3D(#3,#7,#9);
#676=IFCEXTRUDEDAREASOLID(#674,#675,#9,200.);
#677=IFCSHAPEREPRESENTATION(#95,'Body','SweptSolid',(#676));
#678=IFCPRODUCTDEFINITIONSHAPE($,$,(#677));
#679=IFCCARTESIANPOINT((23188.,-100.,4915.));
#680=IFCAXIS2PLACEMENT3D(#679,$,$);
#681=IFCLOCALPLACEMENT(#190,#680);
#682=IFCOPENINGELEMENT('3Bddd$RtX4BfXCbObFfcgg',#20,'M_Fixed:0406 x 0610mm:350603:1',$,'Opening',#681,#678,'350603');
#683=IFCRELVOIDSELEMENT('3Bddd$RtX4BfXCbOvFfcgg',#20,$,$,#202,#682);
#684=IFCRELFILLSELEMENT('1JFZCV6454GROlMH1Hyylh',#20,$,$,#682,#454);
#685=IFCAXIS2PLACEMENT3D(#3,$,$);
#686=IFCLOCALPLACEMENT(#681,#685);
#687=IFCCARTESIANPOINT((304.99999999999994,202.99999999999878));
#688=IFCAXIS2PLACEMENT2D(#687,#11);
#689=IFCRECTANGLEPROFILEDEF(.AREA.,$,#688,609.99999999999898,405.99999999999972);
#690=IFCAXIS2PLACEMENT3D(#3,#7,#9);
#691=IFCEXTRUDEDAREASOLID(#689,#690,#9,200.);
#692=IFCSHAPEREPRESENTATION(#95,'Body','SweptSolid',(#691));
#693=IFCPRODUCTDEFINITIONSHAPE($,$,(#692));
#694=IFCCARTESIANPOINT((13782.,-100.,4915.));
#695=IFCAXIS2PLACEMENT3D(#694,$,$);
#696=IFCLOCALPLACEMENT(#190,#695);
#697=IFCOPENINGELEMENT('3Bddd$RtX4BfXCbObFfcg8',#20,'M_Fixed:0406 x 0610mm:350633:1',$,'Opening',#696,#693,'350633');
#698=IFCRELVOIDSELEMENT('3Bddd$RtX4BfXCbOvFfcg8',#20,$,$,#202,#697);
#699=IFCRELFILLSELEMENT('36mQgzvQ5AwAKmX0fr8uwB',#20,$,$,#697,#469);
#700=IFCAXIS2PLACEMENT3D(#3,$,$);
#701=IFCLOCALPLACEMENT(#696,#700);
#702=IFCCARTESIANPOINT((304.99999999999994,202.99999999999989));
#703=IFCAXIS2PLACEMENT2D(#702,#11);
#704=IFCRECTANGLEPROFILEDEF(.AREA.,$,#703,609.99999999999898,405.99999999999977);
#705=IFCAXIS2PLACEMENT3D(#3,#7,#9);
#706=IFCEXTRUDEDAREASOLID(#704,#705,#9,200.);
#707=IFCSHAPEREPRESENTATION(#95,'Body','SweptSolid',(#706));
#708=IFCPRODUCTDEFINITIONSHAPE($,$,(#707));
#709=IFCCARTESIANPOINT((7200.,-100.,5783.9489447633468));
#710=IFCAXIS2PLACEMENT3D(#709,$,$);
#711=IFCLOCALPLACEMENT(#190,#710);
#712=IFCOPENINGELEMENT('3Bddd$RtX4BfXCbObFfche',#20,'M_Fixed:0406 x 0610mm:350665:1',$,'Opening',#711,#708,'350665');
#713=IFCRELVOIDSELEMENT('3Bddd$RtX4BfXCbOvFfche',#20,$,$,#202,#712);
#714=IFCRELFILLSELEMENT('26nYV0GYP0aQqYMgJyua1n',#20,$,$,#712,#484);
#715=IFCAXIS2PLACEMENT3D(#3,$,$);
#716=IFCLOCALPLACEMENT(#711,#715);
#717=IFCCARTESIANPOINT((1066.9999999999998,457.5));
#718=IFCAXIS2PLACEMENT2D(#717,#13);
#719=IFCRECTANGLEPROFILEDEF(.AREA.,$,#718,914.99999999999977,2133.9999999999995);
#720=IFCAXIS2PLACEMENT3D(#3,#7,#9);
#721=IFCEXTRUDEDAREASOLID(#719,#720,#9,200.);
#722=IFCSHAPEREPRESENTATION(#95,'Body','SweptSolid',(#721));
#723=IFCPRODUCTDEFINITIONSHAPE($,$,(#722));
#724=IFCCARTESIANPOINT((8200.,-100.,0.));
#725=IFCAXIS2PLACEMENT3D(#724,$,$);
#726=IFCLOCALPLACEMENT(#216,#725);
#727=IFCOPENINGELEMENT('3Bddd$RtX4BfXCbObFfcea',#20,'M_Single-Flush:0915 x 2134mm:350469:1',$,'Opening',#726,#723,'350469');
#728=IFCRELVOIDSELEMENT('3Bddd$RtX4BfXCbOvFfcea',#20,$,$,#228,#727);
#729=IFCRELFILLSELEMENT('0jq4eL0Dn57B7Za7Ueqdc1',#20,$,$,#727,#343);
#730=IFCAXIS2PLACEMENT3D(#3,$,$);
#731=IFCLOCALPLACEMENT(#726,#730);
#732=IFCCARTESIANPOINT((304.99999999999943,203.00000000000313));
#733=IFCAXIS2PLACEMENT2D(#732,#11);
#734=IFCRECTANGLEPROFILEDEF(.AREA.,$,#733,609.99999999999898,405.99999999999977);
#735=IFCAXIS2PLACEMENT3D(#3,#7,#9);
#736=IFCEXTRUDEDAREASOLID(#734,#735,#9,200.);
#737=IFCSHAPEREPRESENTATION(#95,'Body','SweptSolid',(#736));
#738=IFCPRODUCTDEFINITIONSHAPE($,$,(#737));
#739=IFCCARTESIANPOINT((21594.,-100.,6475.8823609357451));
#740=IFCAXIS2PLACEMENT3D(#739,$,$);
#741=IFCLOCALPLACEMENT(#216,#740);
#742=IFCOPENINGELEMENT('3Bddd$RtX4BfXCbObFfch6',#20,'M_Fixed:0406 x 0610mm:350695:1',$,'Opening',#741,#738,'350695');
#743=IFCRELVOIDSELEMENT('3Bddd$RtX4BfXCbOvFfch6',#20,$,$,#228,#742);
#744=IFCRELFILLSELEMENT('02TYtARqLFcx8PGOMG0Ajv',#20,$,$,#742,#499);
#745=IFCAXIS2PLACEMENT3D(#3,$,$);
#746=IFCLOCALPLACEMENT(#741,#745);
#747=IFCCARTESIANPOINT((304.99999999999994,203.00000000000097));
#748=IFCAXIS2PLACEMENT2D(#747,#11);
#749=IFCRECTANGLEPROFILEDEF(.AREA.,$,#748,609.99999999999898,405.99999999999977);
#750=IFCAXIS2PLACEMENT3D(#3,#7,#9);
#751=IFCEXTRUDEDAREASOLID(#749,#750,#9,200.);
#752=IFCSHAPEREPRESENTATION(#95,'Body','SweptSolid',(#751));
#753=IFCPRODUCTDEFINITIONSHAPE($,$,(#752));
#754=IFCCARTESIANPOINT((11397.,-100.,4915.));
#755=IFCAXIS2PLACEMENT3D(#754,$,$);
#756=IFCLOCALPLACEMENT(#216,#755);
#757=IFCOPENINGELEMENT('3Bddd$RtX4BfXCbObFfcaa',#20,'M_Fixed:0406 x 0610mm:350725:1',$,'Opening',#756,#753,'350725');
#758=IFCRELVOIDSELEMENT('3Bddd$RtX4BfXCbOvFfcaa',#20,$,$,#228,#757);
#759=IFCRELFILLSELEMENT('3nvPuPQwz06uu561HmlSve',#20,$,$,#757,#514);
#760=IFCAXIS2PLACEMENT3D(#3,$,$);
#761=IFCLOCALPLACEMENT(#756,#760);
#762=IFCCARTESIANPOINT((304.99999999999994,203.00000000000097));
#763=IFCAXIS2PLACEMENT2D(#762,#11);
#764=IFCRECTANGLEPROFILEDEF(.AREA.,$,#763,609.99999999999898,405.99999999999977);
#765=IFCAXIS2PLACEMENT3D(#3,#7,#9);
#766=IFCEXTRUDEDAREASOLID(#764,#765,#9,200.);
#767=IFCSHAPEREPRESENTATION(#95,'Body','SweptSolid',(#766));
#768=IFCPRODUCTDEFINITIONSHAPE($,$,(#767));
#769=IFCCARTESIANPOINT((4200.,-100.,4915.));
#770=IFCAXIS2PLACEMENT3D(#769,$,$);
#771=IFCLOCALPLACEMENT(#216,#770);
#772=IFCOPENINGELEMENT('3Bddd$RtX4BfXCbObFfca6',#20,'M_Fixed:0406 x 0610mm:350759:1',$,'Opening',#771,#768,'350759');
#773=IFCRELVOIDSELEMENT('3Bddd$RtX4BfXCbOvFfca6',#20,$,$,#228,#772);
#774=IFCRELFILLSELEMENT('1e92Sin_zBMuW3jTo5WgYt',#20,$,$,#772,#529);
#775=IFCAXIS2PLACEMENT3D(#3,$,$);
#776=IFCLOCALPLACEMENT(#771,#775);
ENDSEC;

END-ISO-10303-21;